<svg width="17" height="22" viewBox="0 0 17 22" fill="none" xmlns="http://www.w3.org/2000/svg">
<path d="M16.4571 7.50055C16.336 7.59956 14.1976 8.86909 14.1976 11.692C14.1976 14.9571 16.9186 16.1122 17 16.1408C16.9875 16.2112 16.5677 17.7228 15.5654 19.2629C14.6717 20.6183 13.7382 21.9714 12.3183 21.9714C10.8983 21.9714 10.5329 21.1023 8.89363 21.1023C7.29616 21.1023 6.72817 22 5.42931 22C4.13045 22 3.22417 20.7459 2.18216 19.2057C0.975187 17.3971 0 14.5875 0 11.9208C0 7.64356 2.63948 5.37514 5.23719 5.37514C6.61749 5.37514 7.76809 6.33003 8.63469 6.33003C9.45953 6.33003 10.7459 5.31793 12.3162 5.31793C12.9113 5.31793 15.0496 5.37514 16.4571 7.50055ZM11.5707 3.50715C12.2201 2.69527 12.6795 1.56876 12.6795 0.442244C12.6795 0.286029 12.667 0.127613 12.6398 0C11.5832 0.0418042 10.3261 0.741474 9.56811 1.66777C8.97298 2.38064 8.41752 3.50715 8.41752 4.64907C8.41752 4.82068 8.44466 4.9923 8.45719 5.0473C8.52401 5.06051 8.6326 5.07591 8.74119 5.07591C9.68923 5.07591 10.8816 4.40704 11.5707 3.50715Z" fill="#212121"/>
</svg>
